<?xml version="1.0" standalone="no"?><!DOCTYPE svg PUBLIC "-//W3C//DTD SVG 1.1//EN" "http://www.w3.org/Graphics/SVG/1.1/DTD/svg11.dtd"><svg t="1615449142832" class="icon" viewBox="0 0 1024 1024" version="1.1" xmlns="http://www.w3.org/2000/svg" p-id="3406" xmlns:xlink="http://www.w3.org/1999/xlink" width="150" height="150"><defs><style type="text/css"></style></defs><path d="M130.811043 750.022198a49.020899 49.020899 0 0 1-34.804838-83.825736l69.119467-69.119467a49.020899 49.020899 0 1 1 69.119467 69.119467L165.125672 735.315929a49.020899 49.020899 0 0 1-34.314629 14.706269z" fill="#BF4621" p-id="3407"></path><path d="M218.068243 993.165855a49.020899 49.020899 0 0 1-34.804838-83.825737l69.119467-69.119467a49.020899 49.020899 0 0 1 69.119466 69.119467l-69.119466 69.119467a49.020899 49.020899 0 0 1-34.314629 14.70627z m-196.083594-510.797763a73.531348 73.531348 0 0 1 0-103.924304l34.804838-34.804838a123.091476 123.091476 0 0 1 69.119466-34.804838l202.456311-28.92233 122.062038-122.062038A535.700379 535.700379 0 0 1 831.809892 0.002451h142.650815a49.020899 49.020899 0 0 1 49.020898 49.020899v143.631232a535.798421 535.798421 0 0 1-157.847293 381.382591l-122.062037 122.062037-28.92233 202.456311a123.042455 123.042455 0 0 1-34.804838 69.119467l-34.804838 34.804838a73.531348 73.531348 0 0 1-103.924305 0z" fill="#EF5D29" p-id="3408"></path><path d="M655.824866 495.603735a122.552246 122.552246 0 1 1 122.552247-122.552246 122.552246 122.552246 0 0 1-122.552247 122.552246z m0-196.083594a73.531348 73.531348 0 1 0 73.531348 73.531348 73.531348 73.531348 0 0 0-73.531348-73.531348z" fill="#BF4621" p-id="3409"></path><path d="M680.335316 471.093286a122.552246 122.552246 0 1 1 122.552246-122.552247 122.552246 122.552246 0 0 1-122.552246 122.552247z m0-196.083594a73.531348 73.531348 0 1 0 73.531347 73.531347 73.531348 73.531348 0 0 0-73.531347-73.531347z" fill="#EAB82D" p-id="3410"></path></svg>